<?xml version="1.0" standalone="no"?>
<!DOCTYPE svg PUBLIC "-//W3C//DTD SVG 20010904//EN"
 "http://www.w3.org/TR/2001/REC-SVG-20010904/DTD/svg10.dtd">
<svg version="1.0" xmlns="http://www.w3.org/2000/svg"
 width="270.000000pt" height="270.000000pt" viewBox="0 0 270.000000 270.000000"
 preserveAspectRatio="xMidYMid meet">
<metadata>
Created by potrace 1.11, written by Peter Selinger 2001-2013
</metadata>
<g transform="translate(0.000000,270.000000) scale(0.100000,-0.100000)"
fill="#000000" stroke="none">
<path d="M524 2391 c-148 -61 -316 -181 -297 -214 4 -9 54 -72 111 -141 l103
-126 -34 -62 c-19 -35 -45 -89 -57 -120 -13 -31 -26 -56 -29 -54 -3 2 -32 0
-64 -5 -98 -16 -208 -84 -243 -150 -19 -38 -16 -118 9 -206 24 -86 52 -117
124 -135 30 -8 62 -24 76 -39 13 -15 28 -28 34 -30 7 -2 28 -44 48 -93 19 -49
49 -108 66 -130 16 -23 52 -75 79 -116 92 -143 232 -273 380 -354 86 -46 256
-102 353 -115 245 -34 505 22 706 152 259 168 424 419 476 724 9 54 17 98 18
99 1 1 39 20 85 44 158 81 226 173 227 306 0 65 -3 75 -37 126 -41 62 -108
111 -183 134 -42 12 -224 43 -261 44 -7 0 -30 24 -51 53 -323 427 -926 539
-1383 258 l-48 -30 -42 105 c-49 122 -50 122 -166 75z m190 -186 c50 -124 77
-204 74 -219 -4 -17 -1 -23 9 -19 7 3 13 -1 13 -10 0 -14 -184 -134 -233 -152
-23 -9 -341 373 -326 392 6 7 15 13 20 13 4 0 63 -67 130 -150 111 -138 129
-158 129 -146 0 2 -56 73 -125 158 l-126 153 25 20 c14 11 38 28 54 37 l27 16
109 -174 c60 -95 111 -172 113 -170 2 2 -43 79 -101 172 -58 92 -106 171 -106
176 0 11 99 60 109 54 4 -3 50 -80 102 -170 52 -91 97 -166 101 -166 6 0 -132
246 -179 318 -17 28 -18 27 27 46 71 31 68 34 154 -179z m863 110 c188 -48
390 -173 511 -317 l53 -63 -42 -3 c-31 -2 -47 2 -63 17 -22 21 -31 21 -469 21
l-447 0 0 21 c0 19 4 21 30 16 39 -8 38 2 -4 40 -26 22 -33 36 -29 52 5 21 6
21 360 21 205 0 352 4 349 9 -11 17 -172 90 -246 111 -96 28 -298 38 -408 20
-84 -13 -242 -66 -242 -81 0 -5 4 -9 9 -9 4 0 6 -10 4 -23 -5 -27 -33 -32 -33
-6 0 30 -15 30 -61 1 -24 -16 -49 -31 -56 -35 -8 -5 -18 4 -28 24 -20 38 -19
38 106 103 92 49 225 91 329 106 101 14 265 3 377 -25z m-505 -165 c-4 -12
-12 -21 -17 -21 -15 0 -23 44 -11 57 17 18 38 -10 28 -36z m-189 -92 c-6 -11
-43 -10 -43 0 0 19 22 31 35 19 7 -7 11 -15 8 -19z m129 -15 c-2 -12 -9 -21
-16 -20 -18 3 -27 37 -14 51 17 18 36 -1 30 -31z m60 -106 c-16 -18 -16 -18
-23 0 -3 10 -1 26 4 35 10 15 12 15 23 0 10 -14 9 -20 -4 -35z m-122 33 c12
-8 12 -10 -3 -16 -9 -3 -25 -3 -34 0 -15 6 -15 8 -3 16 8 6 17 10 20 10 3 0
12 -4 20 -10z m234 -31 c62 -29 70 -133 14 -189 -23 -24 -38 -30 -72 -30 -67
0 -86 20 -86 90 0 48 4 64 26 89 14 17 40 35 57 40 18 5 33 10 34 10 1 1 13
-4 27 -10z m-223 -25 c34 -17 68 -82 69 -127 0 -39 -24 -92 -51 -111 -86 -60
-199 53 -168 168 21 77 82 106 150 70z m-147 -15 c-27 -30 -31 -133 -6 -179
25 -46 76 -80 120 -80 27 0 43 9 75 41 36 36 44 39 64 30 13 -6 42 -11 65 -11
34 0 47 6 79 39 36 36 44 56 42 109 -2 34 171 -41 249 -108 78 -67 107 -161
77 -245 -21 -56 -137 -83 -217 -49 -49 20 -126 20 -158 -1 -33 -21 -61 -69
-69 -117 -11 -64 -45 -69 -104 -14 l-34 31 6 -30 c3 -16 9 -38 13 -49 6 -16 3
-17 -27 -11 -104 22 -176 77 -220 170 -42 87 -37 105 27 105 13 0 24 5 24 10
0 6 -20 10 -45 10 -35 0 -51 -6 -74 -27 -30 -28 -50 -73 -33 -73 5 0 15 11 22
25 16 30 30 33 30 6 0 -10 14 -45 30 -76 25 -48 30 -69 30 -127 0 -93 15 -140
63 -194 55 -62 69 -68 128 -54 39 10 53 9 64 0 12 -10 15 -9 15 9 0 16 -8 23
-29 27 -45 9 -82 50 -75 82 9 39 38 76 61 80 11 2 38 -9 58 -23 36 -24 44 -25
129 -21 50 3 102 7 116 10 14 3 47 8 73 11 34 5 58 16 83 37 53 46 61 30 56
-114 l-4 -117 -61 -5 c-34 -4 -156 -15 -272 -26 -115 -11 -264 -23 -330 -26
l-120 -7 -70 349 c-57 280 -74 348 -85 345 -67 -18 -100 -7 -100 33 0 43 46
60 93 35 18 -10 24 -8 44 15 14 16 23 40 23 59 0 30 6 36 88 85 94 56 116 64
86 31z m1502 -2 c1 -1 0 -13 -3 -27 l-4 -25 -152 -1 c-84 -1 -171 -6 -194 -12
-34 -8 -43 -7 -43 3 0 7 -2 20 -6 28 -5 14 41 27 141 41 27 4 257 -2 261 -7z
m-1276 -1 c0 -11 -19 -15 -25 -6 -3 5 1 10 9 10 9 0 16 -2 16 -4z m1455 -40
c60 -27 108 -66 147 -120 l28 -40 -30 -12 c-29 -13 -31 -12 -77 37 -53 57 -91
79 -176 104 -41 12 -57 21 -57 34 0 10 3 21 7 25 12 12 105 -4 158 -28z
m-1975 -48 c0 -4 -13 -33 -30 -63 -16 -30 -30 -62 -30 -70 0 -16 -20 -19 -57
-9 l-22 6 20 52 c12 28 33 73 47 99 l27 48 22 -28 c13 -15 23 -31 23 -35z
m1375 33 c0 -18 -10 -26 -52 -40 -95 -32 -162 -94 -201 -185 -14 -31 -26 -26
-36 15 -4 20 2 35 32 70 60 70 93 97 166 134 76 39 91 40 91 6z m-234 -87
l-73 -77 -26 33 c-14 18 -52 52 -85 76 l-59 44 158 0 159 0 -74 -76z m631 68
c14 -6 1 -25 -68 -102 -47 -52 -88 -96 -92 -98 -9 -3 -215 178 -209 184 18 18
330 31 369 16z m161 -35 c29 -13 67 -36 85 -52 33 -28 68 -83 58 -92 -7 -7
-382 -35 -418 -31 -27 3 -24 7 64 106 105 118 105 118 211 69z m-448 -82 c60
-54 100 -97 93 -99 -7 -3 -36 -7 -65 -10 -38 -3 -55 -1 -63 10 -17 20 -56 18
-72 -4 -9 -14 -32 -21 -78 -26 -36 -3 -89 -9 -119 -13 l-54 -6 6 38 c8 48 48
106 97 140 33 23 122 63 142 65 5 0 55 -43 113 -95z m-1451 50 c4 -10 -1 -15
-14 -15 -20 0 -26 11 -13 23 10 11 20 8 27 -8z m2120 -145 c-1 -66 -29 -125
-84 -180 -34 -34 -133 -100 -151 -100 -3 0 -11 11 -17 24 -10 23 -7 27 37 55
98 64 160 147 161 218 0 31 12 43 40 40 11 -2 15 -16 14 -57z m-2254 11 c20
-23 30 -27 39 -18 8 8 11 8 11 0 0 -6 -6 -14 -12 -16 -10 -4 -10 -8 1 -15 9
-6 10 -11 2 -13 -6 -2 -13 -15 -16 -29 -5 -29 -54 -72 -73 -65 -7 3 -11 1 -8
-4 3 -5 -15 -14 -39 -21 -62 -17 -49 -25 17 -11 74 16 177 67 188 94 l9 22 0
-23 c1 -12 -8 -30 -18 -39 -11 -9 -18 -20 -15 -25 3 -5 1 -7 -5 -6 -5 2 -16
-5 -23 -15 -12 -16 -40 -24 -90 -26 -33 -2 -18 -21 16 -21 l33 0 -11 -35 c-7
-21 -16 -33 -23 -30 -7 2 -36 7 -64 11 l-51 7 32 13 c27 12 30 17 20 28 -8 11
-18 12 -35 6 -13 -5 -41 -7 -62 -4 -24 4 -33 2 -25 -4 9 -6 3 -9 -18 -9 -21 0
-27 3 -18 9 15 11 -75 4 -105 -7 -11 -5 -17 -2 -17 8 0 8 -7 17 -15 21 -8 3
-15 10 -15 15 0 10 25 9 36 -2 10 -10 204 -9 204 1 0 5 -39 8 -87 8 -162 -1
-200 33 -126 115 65 72 149 108 256 108 75 1 80 -1 107 -28z m2176 -32 c-14
-73 -106 -166 -187 -190 l-40 -12 -50 49 c-27 27 -47 55 -44 62 6 17 -39 62
-63 62 -10 0 -27 6 -38 14 -16 12 -16 16 -4 20 18 7 246 23 354 25 l79 1 -7
-31z m-426 -60 c0 -32 13 -44 64 -58 35 -9 116 -74 116 -92 0 -24 -219 -79
-317 -79 -64 0 -170 15 -182 26 -9 8 103 114 119 114 23 0 51 22 54 43 1 10
24 40 51 67 l49 50 23 -22 c13 -12 23 -33 23 -49z m-110 26 c-23 -24 -43 -35
-63 -35 -47 0 -69 -17 -65 -52 3 -26 -5 -37 -54 -80 l-57 -50 -45 22 c-25 12
-59 37 -75 56 -30 33 -60 109 -48 120 12 12 238 33 261 24 16 -6 32 -4 50 5
14 8 40 16 58 18 75 9 74 10 38 -28z m-381 -128 c13 -21 32 -42 43 -48 15 -8
17 -13 7 -25 -23 -28 -46 -17 -52 27 -6 42 -40 89 -65 89 -9 0 -12 6 -8 16 3
9 9 34 13 57 l6 41 17 -60 c9 -33 26 -77 39 -97z m-1183 116 c-10 -10 -19 5
-10 18 6 11 8 11 12 0 2 -7 1 -15 -2 -18z m-16 -43 c0 -5 -7 -10 -15 -10 -8 0
-15 5 -15 10 0 6 7 10 15 10 8 0 15 -4 15 -10z m137 -76 c3 -8 0 -21 -7 -27
-10 -9 -11 -9 -6 1 4 7 2 19 -4 27 -9 11 -9 15 -1 15 6 0 14 -7 18 -16z m-76
-122 c-65 -93 -321 -145 -431 -89 -35 17 -48 30 -57 60 -16 47 -3 77 32 77 35
0 31 -16 -7 -29 l-32 -11 22 -22 c19 -20 31 -22 114 -20 60 2 88 -1 79 -7 -10
-6 -5 -8 16 -7 16 2 34 5 39 8 7 5 49 16 84 23 26 5 78 30 75 36 -3 4 14 16
38 28 42 21 42 21 45 1 2 -11 -6 -33 -17 -48z m1867 32 c3 -18 -8 -26 -70 -52
-97 -40 -170 -54 -281 -54 -138 1 -287 38 -287 72 0 30 15 32 79 11 130 -43
278 -36 435 19 94 33 120 34 124 4z m-638 9 c-1 -14 -30 -47 -36 -41 -6 7 17
48 28 48 5 0 8 -3 8 -7z m556 -115 c-3 -13 -12 -59 -21 -103 -48 -230 -209
-472 -400 -602 -66 -44 -205 -117 -211 -110 -3 2 -9 18 -13 34 -9 30 -7 31 42
54 l51 24 -59 5 -58 5 -18 50 c-10 28 -18 60 -18 73 l-1 22 179 0 178 0 45 48
c25 27 51 58 57 70 l12 22 -251 0 c-277 0 -259 -5 -263 70 l-2 44 65 12 c40 8
155 13 301 13 l236 1 22 59 c11 32 21 63 21 70 0 8 -37 11 -122 11 l-121 0 22
24 c13 14 20 29 17 34 -13 21 33 40 120 51 50 6 109 18 130 25 56 21 65 20 60
-6z m-457 0 c28 -6 51 -15 51 -18 0 -4 -24 -30 -54 -59 l-55 -51 -130 0 c-80
0 -132 4 -136 11 -4 5 -4 37 0 70 l7 59 133 0 c74 0 156 -5 184 -12z m-1210
-20 c5 -13 12 -42 16 -65 l7 -43 -126 0 -125 0 19 -52 c10 -29 21 -61 25 -70
6 -16 22 -18 120 -18 108 0 113 -1 119 -22 8 -33 -5 -40 -81 -45 -134 -10
-195 27 -233 142 l-22 65 36 34 c20 18 36 42 36 53 0 29 36 42 123 42 71 1 78
-1 86 -21z m1341 -13 c-10 -12 -16 -13 -26 -4 -20 16 -18 19 12 19 22 0 25 -2
14 -15z m-1580 -24 c-15 -30 -29 -35 -95 -38 -67 -2 -101 10 -75 27 8 5 31 10
50 11 19 1 49 5 65 9 56 14 67 12 55 -9z m1549 -2 c23 -19 23 -20 5 -40 -58
-64 -228 -147 -334 -164 -25 -3 -53 -9 -62 -11 -11 -3 -18 0 -18 9 0 9 19 19
48 27 89 24 209 88 269 145 32 30 60 54 63 54 3 0 16 -9 29 -20z m-1594 -121
c46 -136 86 -169 215 -175 87 -5 157 14 152 41 -2 10 4 16 15 16 10 0 92 7
182 15 91 9 168 12 173 7 4 -4 11 -49 14 -98 7 -90 6 -91 -17 -98 -13 -3 -106
-9 -207 -13 l-183 -6 7 63 c6 58 6 62 -12 57 -149 -45 -279 -23 -337 55 -38
52 -87 184 -74 197 26 26 49 7 72 -61z m1085 -67 c0 -21 -28 -32 -54 -20 -38
17 -32 29 14 29 22 0 40 -4 40 -9z m55 -57 c4 -36 5 -67 3 -69 -3 -3 -256 -36
-297 -39 -22 -1 -26 5 -37 59 -7 33 -11 62 -9 64 2 2 39 -4 82 -13 l78 -16 18
25 c18 23 20 24 47 10 40 -21 46 -19 67 15 27 47 40 37 48 -36z m-155 49 c0
-5 -7 -16 -14 -26 -13 -16 -20 -17 -82 -6 -99 16 -107 22 -39 29 93 10 135 11
135 3z m-206 -30 c3 -10 10 -48 17 -85 10 -62 13 -67 33 -63 11 2 82 11 156
20 194 23 178 15 174 77 -3 37 7 7 31 -95 19 -81 51 -202 71 -269 33 -112 35
-123 19 -134 -72 -53 -403 -68 -570 -25 -105 27 -275 104 -275 126 0 8 0 18 0
23 0 4 15 11 32 15 18 5 50 13 71 18 l37 10 0 74 0 75 -110 0 c-60 0 -110 3
-110 8 0 4 60 7 133 8 72 1 167 4 211 9 l79 7 -7 86 c-4 48 -10 97 -13 110 -6
26 13 30 21 5z m-451 -120 c-7 -2 -19 -2 -25 0 -7 3 -2 5 12 5 14 0 19 -2 13
-5z m-116 -41 c13 -15 23 -33 23 -39 0 -7 7 -13 15 -13 20 0 19 -20 -1 -35
-15 -11 -15 -14 0 -43 9 -17 25 -36 36 -42 17 -9 22 -5 38 25 l18 36 31 -78
c17 -43 29 -80 27 -82 -6 -7 -123 90 -177 148 -54 59 -117 143 -117 156 0 4
19 4 43 0 28 -4 49 -15 64 -33z m97 -17 c4 -11 -2 -15 -21 -15 -21 0 -24 2
-13 15 7 8 16 15 20 15 4 0 10 -7 14 -15z m1 -105 c-17 -32 -28 -32 -45 0 -9
17 -6 22 22 33 39 16 45 9 23 -33z m245 -25 c0 -61 -4 -65 -63 -68 -19 -1 -33
-5 -30 -9 2 -5 -7 -8 -21 -8 -15 0 -30 8 -36 19 -13 24 -13 41 0 21 7 -12 9
-10 7 7 0 12 -4 20 -9 17 -10 -6 -30 34 -23 46 3 6 1 10 -4 10 -6 0 -11 4 -11
9 0 5 43 10 95 10 l95 1 0 -55z"/>
<path d="M1050 1800 c0 -13 7 -20 20 -20 13 0 20 7 20 20 0 13 -7 20 -20 20
-13 0 -20 -7 -20 -20z"/>
<path d="M902 1778 c2 -15 10 -23 23 -23 30 0 27 39 -3 43 -20 3 -23 0 -20
-20z"/>
<path d="M2082 1801 c-23 -14 -10 -46 21 -49 21 -3 27 1 27 15 0 18 -17 43
-29 43 -4 0 -12 -4 -19 -9z"/>
<path d="M2336 1767 c-27 -20 -5 -57 33 -57 37 0 60 25 40 44 -23 22 -54 27
-73 13z"/>
<path d="M2464 1696 c-9 -22 4 -36 32 -36 21 0 25 4 22 23 -4 26 -45 37 -54
13z"/>
<path d="M2247 1674 c-14 -14 -6 -24 19 -24 16 0 24 5 22 13 -5 14 -31 21 -41
11z"/>
<path d="M1831 1753 c-28 -19 -27 -51 3 -64 30 -14 75 -4 83 18 15 39 -48 73
-86 46z"/>
<path d="M1750 1640 c0 -5 5 -10 10 -10 6 0 10 5 10 10 0 6 -4 10 -10 10 -5 0
-10 -4 -10 -10z"/>
<path d="M2393 1568 c-29 -14 -36 -34 -17 -53 30 -29 114 -17 114 16 0 16 -40
49 -57 48 -10 0 -28 -5 -40 -11z"/>
<path d="M2107 1446 c-7 -16 1 -26 20 -26 7 0 13 9 13 20 0 23 -25 27 -33 6z"/>
<path d="M2014 1359 c-10 -17 13 -36 27 -22 12 12 4 33 -11 33 -5 0 -12 -5
-16 -11z"/>
<path d="M1762 1524 c-12 -8 -22 -22 -22 -29 0 -18 41 -29 69 -20 25 8 29 50
5 59 -22 9 -27 8 -52 -10z"/>
</g>
</svg>
